<svg fill="none" height="20" viewBox="0 0 20 20" width="20" xmlns="http://www.w3.org/2000/svg"><g fill="#212121"><path d="m7.5 9.5c.55228 0 1-.44772 1-1s-.44772-1-1-1-1 .44772-1 1 .44772 1 1 1z"/><path d="m13.5 8.5c0 .55228-.4477 1-1 1s-1-.44772-1-1 .4477-1 1-1 1 .44772 1 1z"/><path d="m13.5624 13.3904c-.2147.1717-.5274.1379-.7004-.0751l-.0029-.0033c-.0039-.0045-.0115-.0132-.0229-.0255-.0228-.0246-.0607-.0634-.114-.1119-.1067-.097-.2745-.232-.5069-.3687-.4618-.2718-1.1871-.5559-2.2134-.5559-1.02635 0-1.75272.2842-2.21568.5561-.2329.1368-.40128.2719-.50839.369-.05352.0485-.09155.0874-.11448.112-.01147.0123-.01913.021-.02304.0255l-.00288.0034c-.17342.2127-.48625.2459-.70056.0738-.21529-.1729-.24964-.4876-.07671-.7029l.38982.3131c-.38982-.3131-.39-.3129-.38982-.3131l.00072-.0009.00081-.001.00192-.0024.005-.006.01469-.0174c.01189-.0137.028-.0319.04838-.0538.04075-.0437.09872-.1025.17446-.1711.15138-.1373.3745-.3148.67359-.4904.60103-.3531 1.50061-.6939 2.72217-.6939 1.2216 0 2.1203.3408 2.7206.6941.2987.1757.5214.3533.6724.4906.0756.0687.1335.1276.1741.1713.0203.0219.0364.0401.0483.0539l.0146.0174.005.006.002.0024.0008.001c.0001.0002.0007.0009-.3897.3133l.3904-.3124c.1725.2156.1376.5303-.078.7028z"/><path d="m10 2c-4.41828 0-8 3.58172-8 8 0 4.4183 3.58172 8 8 8 4.4183 0 8-3.5817 8-8 0-4.41828-3.5817-8-8-8zm-7 8c0-3.86599 3.13401-7 7-7 3.866 0 7 3.13401 7 7 0 3.866-3.134 7-7 7-3.86599 0-7-3.134-7-7z"/></g></svg>